<?xml version="1.0" encoding="iso-8859-1"?>
<!-- Generator: Adobe Illustrator 18.1.1, SVG Export Plug-In . SVG Version: 6.00 Build 0)  -->
<svg version="1.1" id="Capa_1" xmlns="http://www.w3.org/2000/svg" xmlns:xlink="http://www.w3.org/1999/xlink" x="0px" y="0px"
	 viewBox="0 0 28.049 28.049" style="enable-background:new 0 0 28.049 28.049;" xml:space="preserve">
<g>
	<path d="M25.816,0.435H2.23C0.997,0.435,0,1.447,0,2.699v22.652c0,1.248,0.997,2.264,2.23,2.264h23.586
		c1.23,0,2.233-1.016,2.233-2.264V2.699C28.05,1.447,27.047,0.435,25.816,0.435z M1.678,4.054c0-1.102,0.878-1.994,1.964-1.994
		h9.233V13.12H1.678V4.054z M1.678,23.996v-8.578h11.197V25.99H3.642C2.556,25.99,1.678,25.093,1.678,23.996z M26.37,23.996
		c0,1.098-0.883,1.994-1.966,1.994h-9.233V15.417H26.37V23.996z M26.37,13.12H15.171V2.06h9.233c1.083,0,1.966,0.893,1.966,1.994
		C26.37,4.054,26.37,13.12,26.37,13.12z"/>
	<g>
	</g>
	<g>
	</g>
	<g>
	</g>
	<g>
	</g>
	<g>
	</g>
	<g>
	</g>
	<g>
	</g>
	<g>
	</g>
	<g>
	</g>
	<g>
	</g>
	<g>
	</g>
	<g>
	</g>
	<g>
	</g>
	<g>
	</g>
	<g>
	</g>
</g>
<g>
</g>
<g>
</g>
<g>
</g>
<g>
</g>
<g>
</g>
<g>
</g>
<g>
</g>
<g>
</g>
<g>
</g>
<g>
</g>
<g>
</g>
<g>
</g>
<g>
</g>
<g>
</g>
<g>
</g>
</svg>
