<svg width="188" height="28" viewBox="0 0 188 28" fill="none" xmlns="http://www.w3.org/2000/svg">
<path d="M13.292 27.504C9.524 27.504 6.392 26.244 3.896 23.724C1.424 21.228 0.188 18.12 0.188 14.4C0.188 10.656 1.424 7.548 3.896 5.076C6.392 2.556 9.524 1.296 13.292 1.296C15.572 1.296 17.672 1.836 19.592 2.916C21.536 3.972 23.048 5.412 24.128 7.236L19.844 9.72C19.22 8.592 18.332 7.716 17.18 7.092C16.028 6.444 14.732 6.12 13.292 6.12C10.844 6.12 8.864 6.888 7.352 8.424C5.864 9.984 5.12 11.976 5.12 14.4C5.12 16.8 5.864 18.78 7.352 20.34C8.864 21.876 10.844 22.644 13.292 22.644C14.732 22.644 16.028 22.332 17.18 21.708C18.356 21.06 19.244 20.184 19.844 19.08L24.128 21.564C23.048 23.388 21.536 24.84 19.592 25.92C17.672 26.976 15.572 27.504 13.292 27.504ZM42.4053 24.768C40.5813 26.592 38.3253 27.504 35.6373 27.504C32.9493 27.504 30.6933 26.592 28.8693 24.768C27.0453 22.944 26.1333 20.688 26.1333 18C26.1333 15.336 27.0453 13.092 28.8693 11.268C30.7173 9.42 32.9733 8.496 35.6373 8.496C38.3013 8.496 40.5573 9.42 42.4053 11.268C44.2533 13.116 45.1773 15.36 45.1773 18C45.1773 20.664 44.2533 22.92 42.4053 24.768ZM32.1453 21.564C33.0813 22.5 34.2453 22.968 35.6373 22.968C37.0293 22.968 38.1933 22.5 39.1293 21.564C40.0653 20.628 40.5333 19.44 40.5333 18C40.5333 16.56 40.0653 15.372 39.1293 14.436C38.1933 13.5 37.0293 13.032 35.6373 13.032C34.2453 13.032 33.0813 13.5 32.1453 14.436C31.2333 15.396 30.7773 16.584 30.7773 18C30.7773 19.416 31.2333 20.604 32.1453 21.564ZM63.7803 24.768C61.9563 26.592 59.7003 27.504 57.0123 27.504C54.3243 27.504 52.0683 26.592 50.2443 24.768C48.4203 22.944 47.5083 20.688 47.5083 18C47.5083 15.336 48.4203 13.092 50.2443 11.268C52.0923 9.42 54.3483 8.496 57.0123 8.496C59.6763 8.496 61.9323 9.42 63.7803 11.268C65.6283 13.116 66.5523 15.36 66.5523 18C66.5523 20.664 65.6283 22.92 63.7803 24.768ZM53.5203 21.564C54.4563 22.5 55.6203 22.968 57.0123 22.968C58.4043 22.968 59.5683 22.5 60.5043 21.564C61.4403 20.628 61.9083 19.44 61.9083 18C61.9083 16.56 61.4403 15.372 60.5043 14.436C59.5683 13.5 58.4043 13.032 57.0123 13.032C55.6203 13.032 54.4563 13.5 53.5203 14.436C52.6083 15.396 52.1523 16.584 52.1523 18C52.1523 19.416 52.6083 20.604 53.5203 21.564ZM74.4633 27H69.8193V0.719999H74.4633V27ZM87.5338 27.504C85.0618 27.504 82.9738 26.952 81.2698 25.848C79.5658 24.744 78.3538 23.22 77.6338 21.276L81.8818 18.792C82.8658 21.36 84.7978 22.644 87.6778 22.644C89.0218 22.644 90.0298 22.404 90.7018 21.924C91.3738 21.444 91.7098 20.796 91.7098 19.98C91.7098 19.092 91.3138 18.408 90.5218 17.928C89.7298 17.424 88.3138 16.884 86.2738 16.308C84.0658 15.636 82.3258 14.856 81.0538 13.968C79.4698 12.792 78.6778 11.064 78.6778 8.784C78.6778 6.48 79.4818 4.668 81.0898 3.348C82.6978 1.98 84.6538 1.296 86.9578 1.296C88.9738 1.296 90.7618 1.788 92.3218 2.772C93.8818 3.756 95.0938 5.148 95.9578 6.948L91.7818 9.36C90.7738 7.2 89.1658 6.12 86.9578 6.12C85.9498 6.12 85.1458 6.36 84.5458 6.84C83.9458 7.296 83.6458 7.896 83.6458 8.64C83.6458 9.432 83.9698 10.08 84.6178 10.584C85.3378 11.088 86.6098 11.616 88.4338 12.168L90.1618 12.744C90.4738 12.84 91.0138 13.044 91.7818 13.356C92.5018 13.62 93.0298 13.872 93.3658 14.112C94.5418 14.832 95.3338 15.576 95.7418 16.344C96.3658 17.352 96.6778 18.54 96.6778 19.908C96.6778 22.236 95.8258 24.084 94.1218 25.452C92.4178 26.82 90.2218 27.504 87.5338 27.504ZM108.762 27.504C106.05 27.504 103.782 26.592 101.958 24.768C100.158 22.944 99.2583 20.688 99.2583 18C99.2583 15.312 100.158 13.056 101.958 11.232C103.782 9.408 106.05 8.496 108.762 8.496C110.514 8.496 112.11 8.916 113.55 9.756C114.99 10.596 116.082 11.724 116.826 13.14L112.83 15.48C112.47 14.736 111.918 14.148 111.174 13.716C110.454 13.284 109.638 13.068 108.726 13.068C107.334 13.068 106.182 13.536 105.27 14.472C104.358 15.384 103.902 16.56 103.902 18C103.902 19.392 104.358 20.568 105.27 21.528C106.182 22.44 107.334 22.896 108.726 22.896C109.662 22.896 110.49 22.692 111.21 22.284C111.954 21.852 112.506 21.264 112.866 20.52L116.898 22.824C116.106 24.264 114.978 25.404 113.514 26.244C112.074 27.084 110.49 27.504 108.762 27.504ZM129.362 8.496C131.354 8.496 132.974 9.156 134.222 10.476C135.518 11.82 136.166 13.644 136.166 15.948V27H131.522V16.524C131.522 15.348 131.198 14.436 130.55 13.788C129.926 13.14 129.062 12.816 127.958 12.816C126.734 12.816 125.762 13.2 125.042 13.968C124.346 14.712 123.998 15.816 123.998 17.28V27H119.354V1.8H123.998V11.016C125.102 9.336 126.89 8.496 129.362 8.496ZM155.468 24.768C153.644 26.592 151.388 27.504 148.7 27.504C146.012 27.504 143.756 26.592 141.932 24.768C140.108 22.944 139.196 20.688 139.196 18C139.196 15.336 140.108 13.092 141.932 11.268C143.78 9.42 146.036 8.496 148.7 8.496C151.364 8.496 153.62 9.42 155.468 11.268C157.316 13.116 158.24 15.36 158.24 18C158.24 20.664 157.316 22.92 155.468 24.768ZM145.208 21.564C146.144 22.5 147.308 22.968 148.7 22.968C150.092 22.968 151.256 22.5 152.192 21.564C153.128 20.628 153.596 19.44 153.596 18C153.596 16.56 153.128 15.372 152.192 14.436C151.256 13.5 150.092 13.032 148.7 13.032C147.308 13.032 146.144 13.5 145.208 14.436C144.296 15.396 143.84 16.584 143.84 18C143.84 19.416 144.296 20.604 145.208 21.564ZM176.843 24.768C175.019 26.592 172.763 27.504 170.075 27.504C167.387 27.504 165.131 26.592 163.307 24.768C161.483 22.944 160.571 20.688 160.571 18C160.571 15.336 161.483 13.092 163.307 11.268C165.155 9.42 167.411 8.496 170.075 8.496C172.739 8.496 174.995 9.42 176.843 11.268C178.691 13.116 179.615 15.36 179.615 18C179.615 20.664 178.691 22.92 176.843 24.768ZM166.583 21.564C167.519 22.5 168.683 22.968 170.075 22.968C171.467 22.968 172.631 22.5 173.567 21.564C174.503 20.628 174.971 19.44 174.971 18C174.971 16.56 174.503 15.372 173.567 14.436C172.631 13.5 171.467 13.032 170.075 13.032C168.683 13.032 167.519 13.5 166.583 14.436C165.671 15.396 165.215 16.584 165.215 18C165.215 19.416 165.671 20.604 166.583 21.564ZM187.526 27H182.882V0.719999H187.526V27Z" fill="url(#paint0_linear_20_137)"/>
<defs>
<linearGradient id="paint0_linear_20_137" x1="-1" y1="11.5" x2="191" y2="11.5" gradientUnits="userSpaceOnUse">
<stop stop-color="#F093FB"/>
<stop offset="1" stop-color="#F5576C"/>
</linearGradient>
</defs>
</svg>
